<svg width="14" height="6" viewBox="0 0 14 6" fill="none" xmlns="http://www.w3.org/2000/svg">
<path d="M12.8424 0.751391C12.7876 0.677714 12.7552 0.598189 12.7376 0.526224C12.561 0.522292 12.3307 0.515418 12.1282 0.507903C11.8327 0.496942 9.01271 0.497298 5.84646 0.509478L0.525851 0.529893C0.523994 0.540827 0.522246 0.551384 0.520605 0.561578C0.568974 0.563859 0.622248 0.568685 0.674176 0.578892C0.79805 0.603241 0.939966 0.661847 1.05642 0.793658C1.15469 0.904875 1.20048 1.03164 1.22633 1.11489C1.25362 1.20282 1.27732 1.30835 1.30082 1.41518L12.8424 0.751391ZM12.8424 0.751391C12.7726 0.84592 12.7425 0.946486 12.7291 1.02115C12.7276 1.02933 12.7263 1.03757 12.7251 1.04584C12.3074 1.09286 11.9646 1.41216 11.895 1.83536L11.878 1.93907L11.8679 2.00054C11.7937 2.00073 11.7162 2.00181 11.6486 2.00806C11.5784 2.01456 11.4277 2.03215 11.289 2.13188C11.1316 2.24501 11.0722 2.39891 11.0489 2.50801C11.0343 2.50126 11.0179 2.49341 10.9997 2.48431C10.8816 2.42528 10.7492 2.34599 10.607 2.26057L10.5904 2.25059C10.4671 2.17651 10.3174 2.0866 10.196 2.03274C10.1491 2.01191 10.0205 1.95499 9.87216 1.95858C9.785 1.96068 9.62964 1.98563 9.49946 2.11691C9.36791 2.24957 9.34409 2.40782 9.34409 2.5005C9.34409 2.66049 9.41107 2.79141 9.4399 2.84552C9.45672 2.87709 9.47527 2.90835 9.49441 2.93856C9.46935 2.93678 9.44691 2.93541 9.42696 2.93443C9.38892 2.93256 9.34147 2.93107 9.29593 2.93401C9.27633 2.93528 9.23061 2.93875 9.17757 2.95329C9.15151 2.96043 9.10043 2.97634 9.04381 3.011C8.9893 3.04437 8.88586 3.12241 8.83256 3.26941C8.77395 3.43106 8.81077 3.57693 8.8562 3.66729C8.8965 3.74745 8.94849 3.7974 8.97299 3.81923C9.02322 3.864 9.07217 3.88952 9.08766 3.89755C9.12778 3.91836 9.16884 3.93395 9.19147 3.94237C9.22805 3.95597 9.25963 3.96703 9.28866 3.97688C9.28675 3.98191 9.28489 3.98696 9.28308 3.99204C9.1009 3.99706 8.84562 4.01464 8.61168 4.0582C8.47271 4.08407 8.30488 4.12544 8.1595 4.19863C8.04422 4.25667 7.75025 4.43491 7.75025 4.80352C7.75025 4.89059 7.76639 4.96694 7.79252 5.03349C7.78818 5.04875 7.78432 5.06393 7.78086 5.07882C7.71172 5.08338 7.642 5.08948 7.57824 5.09977C7.50758 5.11118 7.39554 5.13453 7.28682 5.20095C7.16638 5.27452 7.08246 5.38009 7.03504 5.5H6.65426H6.31008C6.27417 5.5 6.24355 5.474 6.23772 5.43857L6.22067 5.33486C6.1502 4.90618 5.79938 4.5841 5.37436 4.54365C5.34243 4.42356 5.27176 4.29057 5.13277 4.19261C5.01427 4.10908 4.88841 4.08285 4.81582 4.07095C4.74981 4.06012 4.67684 4.05406 4.60629 4.04952C4.59943 4.02013 4.59098 3.98963 4.58046 3.95965C4.54176 3.8494 4.46599 3.71775 4.31778 3.62469C4.2607 3.58884 4.20275 3.56532 4.14935 3.5496C4.20711 3.4016 4.25083 3.17852 4.14086 2.9454C4.05111 2.75517 3.90253 2.62209 3.72229 2.55244C3.5633 2.491 3.40777 2.48997 3.3042 2.49545C3.2216 2.49982 3.13065 2.51186 3.06497 2.52056C3.04981 2.52257 3.036 2.5244 3.02394 2.52591C2.97961 2.53149 2.9464 2.5348 2.92074 2.53637C2.91398 2.50775 2.90571 2.47812 2.89548 2.44903C2.85585 2.33639 2.77801 2.20359 2.62684 2.11124C2.50003 2.03377 2.36916 2.01589 2.29337 2.00872C2.23796 2.00347 2.17699 2.00156 2.11597 2.00088C2.08355 1.88183 2.01292 1.75065 1.87544 1.65376C1.75694 1.57023 1.63108 1.54401 1.55849 1.5321C1.48394 1.51987 1.4005 1.51372 1.32169 1.50897C1.31544 1.48142 1.30862 1.45057 1.30085 1.41529L12.8424 0.751391ZM2.7336 2.52441C2.73364 2.52439 2.73469 2.52458 2.73665 2.52507C2.73453 2.52468 2.73356 2.52443 2.7336 2.52441ZM4.41757 4.03352C4.41761 4.0335 4.41882 4.03372 4.42103 4.03428C4.41862 4.03383 4.41752 4.03355 4.41757 4.03352ZM9.77452 2.94055C9.77437 2.94032 9.77759 2.94132 9.78461 2.94428C9.77817 2.94227 9.77466 2.94079 9.77452 2.94055ZM9.2313 4.30685C9.23128 4.30681 9.23133 4.30578 9.2315 4.30389L9.2313 4.30685ZM10.3178 2.36558C10.3181 2.36568 10.3197 2.36879 10.3221 2.37461C10.3188 2.36839 10.3176 2.36548 10.3178 2.36558Z" fill="white" stroke="white"/>
</svg>
