<svg width="24" height="24" viewBox="0 0 24 24" fill="none" xmlns="http://www.w3.org/2000/svg">
<path fill-rule="evenodd" clip-rule="evenodd" d="M0.512841 0.192537C0.0952887 0.454627 -0.105419 0.997581 0.0553158 1.43032C0.210355 1.84755 21.933 23.5928 22.3959 23.7941C23.1145 24.1066 23.8898 23.558 23.8898 22.737V22.3041L12.7822 11.1949C2.35244 0.763862 1.64917 0.0828499 1.25967 0.0350725C0.961823 -0.00141974 0.751096 0.0429826 0.512841 0.192537ZM15.2438 0.18062C15.0422 0.279866 13.8794 1.29142 12.6598 2.42837C11.4403 3.56533 10.1814 4.73793 9.86237 5.03419L9.28229 5.57282L13.3951 9.69222C15.6572 11.958 17.5447 13.8117 17.5899 13.8117C17.635 13.8117 17.659 10.9438 17.6431 7.43856C17.6148 1.15979 17.6111 1.06097 17.3937 0.767659C16.8464 0.0291661 16.0134 -0.19833 15.2438 0.18062ZM2.86164 7.1422C2.53447 7.7748 2.46075 8.66643 2.49672 11.5551L2.53226 14.4074L2.85025 15.0289C3.09346 15.5041 3.29006 15.7257 3.68535 15.9704L4.20247 16.2902L6.59704 16.343L8.99162 16.3957L10.9299 18.2499C14.2375 21.4138 14.7075 21.8347 15.1659 22.0427C16.0311 22.4356 16.9745 22.2332 17.4153 21.5603L17.597 21.2831L10.3813 14.067C6.41268 10.0981 3.13111 6.85078 3.08893 6.85078C3.04684 6.85078 2.94443 6.98188 2.86164 7.1422Z" fill="#B4B4B4"/>
</svg>
