<svg width="24" height="25" viewBox="0 0 24 25" fill="none" xmlns="http://www.w3.org/2000/svg">
<path fill-rule="evenodd" clip-rule="evenodd" d="M15.4237 0.559863C15.2066 0.674726 13.6256 2.07972 11.9103 3.68209L8.79161 6.59541L6.31888 6.63101C4.0207 6.66404 3.81359 6.68397 3.38473 6.91347C3.13085 7.04938 2.79228 7.31616 2.63217 7.50659C2.07664 8.16711 2 8.71869 2 12.055C2 13.8043 2.05124 15.3468 2.11994 15.6674C2.28162 16.422 2.75659 17.046 3.4165 17.371C3.92403 17.6211 4.11278 17.6413 6.42484 17.6938L8.89164 17.7497L11.826 20.5485C13.4399 22.0879 14.9549 23.4624 15.1925 23.6029C16.1419 24.1647 17.2111 23.9921 17.746 23.1908L18 22.8104L17.9996 12.1636C17.9992 1.73715 17.9945 1.50921 17.7768 1.15186C17.305 0.377493 16.2634 0.115526 15.4237 0.559863Z" fill="#B4B4B4"/>
</svg>
